grf
version=1
nRows=19
nColumns=37
inDegrees=no
endheader
time	ground_force_1_vx	ground_force_1_vy	ground_force_1_vz	ground_force_1_px	ground_force_1_py	ground_force_1_pz	ground_moment_1_mx	ground_moment_1_my	ground_moment_1_mz	ground_force_2_vx	ground_force_2_vy	ground_force_2_vz	ground_force_2_px	ground_force_2_py	ground_force_2_pz	ground_moment_2_mx	ground_moment_2_my	ground_moment_2_mz	ground_force_3_vx	ground_force_3_vy	ground_force_3_vz	ground_force_3_px	ground_force_3_py	ground_force_3_pz	ground_moment_3_mx	ground_moment_3_my	ground_moment_3_mz	ground_force_4_vx	ground_force_4_vy	ground_force_4_vz	ground_force_4_px	ground_force_4_py	ground_force_4_pz	ground_moment_4_mx	ground_moment_4_my	ground_moment_4_mz
      0.00000000	      0.00000000	     -0.00000000	      0.00000000	      0.00000000	      0.00000000	      0.00000000	      0.00000000	      0.00000000	      0.00000000	      4.35717726	      0.24384950	    -93.22084808	   -318.85016135	   -987.46523039	      0.00000000	      0.00000000	     -0.00000000	   1326.04416061	     -5.43519776	      0.85948193	   -781.07092285	   -317.12769425	   -730.41141406	      0.00000000	     -0.00000000	      0.00000000	  -3510.91022438	      0.00000000	     -0.00000000	      0.00000000	      0.00000000	      0.00000000	      0.00000000	      0.00000000	      0.00000000	      0.00000000
      0.01000000	      0.00000000	     -0.00000000	      0.00000000	      0.00000000	      0.00000000	      0.00000000	      0.00000000	      0.00000000	      0.00000000	      4.10827875	      0.14612278	    -93.90947723	   -313.77671690	   -992.38116809	      0.00000000	      0.00000000	      0.00000000	   1328.18666611	     -5.15917963	      0.60899035	   -785.48132324	   -316.84662671	   -730.10170144	      0.00000000	      0.00000000	      0.00000000	  -3708.14801477	      0.00000000	     -0.00000000	      0.00000000	      0.00000000	      0.00000000	      0.00000000	      0.00000000	      0.00000000	      0.00000000
      0.02000000	      0.00000000	     -0.00000000	      0.00000000	      0.00000000	      0.00000000	      0.00000000	      0.00000000	      0.00000000	      0.00000000	      3.66655326	     -0.17826080	    -92.16230011	   -319.78825747	   -982.71932873	      0.00000000	      0.00000000	      0.00000000	   1200.97150844	     -5.85491177	      0.43711079	   -786.67413330	   -316.90965404	   -730.21571148	      0.00000000	      0.00000000	     -0.00000000	  -3404.95325184	      0.00000000	     -0.00000000	      0.00000000	      0.00000000	      0.00000000	      0.00000000	      0.00000000	      0.00000000	      0.00000000
      0.03000000	      0.00000000	     -0.00000000	      0.00000000	      0.00000000	      0.00000000	      0.00000000	      0.00000000	      0.00000000	      0.00000000	      4.56276846	     -1.15435505	    -94.24744415	   -318.77738151	   -992.46503696	      0.00000000	      0.00000000	      0.00000000	   1518.71868529	     -5.58437771	      0.60948772	   -789.06530762	   -316.42647961	   -729.61177594	      0.00000000	      0.00000000	     -0.00000000	  -3911.36350050	      0.00000000	     -0.00000000	      0.00000000	      0.00000000	      0.00000000	      0.00000000	      0.00000000	      0.00000000	      0.00000000
      0.04000000	      0.00000000	     -0.00000000	      0.00000000	      0.00000000	      0.00000000	      0.00000000	      0.00000000	      0.00000000	      0.00000000	      4.64743280	     -1.42184711	    -92.19676208	   -321.10662942	   -988.94569766	      0.00000000	      0.00000000	      0.00000000	   1246.45785649	     -5.95222465	      0.98010360	   -789.84869385	   -315.72426955	   -730.21632578	      0.00000000	      0.00000000	     -0.00000000	  -3629.08675781	      0.00000000	     -0.00000000	      0.00000000	      0.00000000	      0.00000000	      0.00000000	      0.00000000	      0.00000000	      0.00000000
      0.05000000	      0.00000000	     -0.00000000	      0.00000000	      0.00000000	      0.00000000	      0.00000000	      0.00000000	      0.00000000	      0.00000000	      4.98341036	     -1.86349380	    -89.01767731	   -319.93014268	   -980.03071370	      0.00000000	      0.00000000	      0.00000000	   1366.09130505	     -6.56878271	      1.15651522	   -791.89233398	   -315.62779136	   -729.99493511	      0.00000000	     -0.00000000	     -0.00000000	  -3601.06361539	      0.00000000	     -0.00000000	      0.00000000	      0.00000000	      0.00000000	      0.00000000	      0.00000000	      0.00000000	      0.00000000
      0.06000000	      0.00000000	     -0.00000000	      0.00000000	      0.00000000	      0.00000000	      0.00000000	      0.00000000	      0.00000000	      0.00000000	      5.34464693	     -1.64024186	    -89.08036041	   -322.76830690	   -986.89003542	      0.00000000	      0.00000000	     -0.00000000	   1269.23096705	     -7.01625485	      0.63035311	   -792.55828857	   -314.90844465	   -729.80065352	      0.00000000	     -0.00000000	     -0.00000000	  -3665.73781012	      0.00000000	     -0.00000000	      0.00000000	      0.00000000	      0.00000000	      0.00000000	      0.00000000	      0.00000000	      0.00000000
      0.07000000	      0.00000000	     -0.00000000	      0.00000000	      0.00000000	      0.00000000	      0.00000000	      0.00000000	      0.00000000	      0.00000000	      5.90339279	     -2.47629476	    -87.29680634	   -324.31187869	   -985.45948517	      0.00000000	      0.00000000	      0.00000000	   1323.77249353	     -7.99577518	      0.52601318	   -791.84490967	   -314.33603932	   -729.79423360	      0.00000000	      0.00000000	     -0.00000000	  -3515.66421986	      0.00000000	     -0.00000000	      0.00000000	      0.00000000	      0.00000000	      0.00000000	      0.00000000	      0.00000000	      0.00000000
      0.08000000	      0.00000000	     -0.00000000	      0.00000000	      0.00000000	      0.00000000	      0.00000000	      0.00000000	      0.00000000	      0.00000000	      5.99597359	     -3.12710524	    -87.88204193	   -323.32576957	   -990.02345950	      0.00000000	     -0.00000000	      0.00000000	   1172.25138596	     -8.43519402	     -0.06923197	   -789.82629395	   -314.25360360	   -730.12783170	      0.00000000	      0.00000000	     -0.00000000	  -3490.45116654	      0.00000000	     -0.00000000	      0.00000000	      0.00000000	      0.00000000	      0.00000000	      0.00000000	      0.00000000	      0.00000000
      0.09000000	      0.00000000	     -0.00000000	      0.00000000	      0.00000000	      0.00000000	      0.00000000	      0.00000000	      0.00000000	      0.00000000	      6.77634239	     -3.83626056	    -85.76482391	   -326.76453994	   -986.87667728	      0.00000000	      0.00000000	      0.00000000	   1131.76369551	     -8.79352094	     -0.16553805	   -788.41363525	   -313.73929287	   -729.64831666	      0.00000000	      0.00000000	     -0.00000000	  -3511.94911325	      0.00000000	     -0.00000000	      0.00000000	      0.00000000	      0.00000000	      0.00000000	      0.00000000	      0.00000000	      0.00000000
      0.10000000	      0.00000000	     -0.00000000	      0.00000000	      0.00000000	      0.00000000	      0.00000000	      0.00000000	      0.00000000	      0.00000000	      7.32582951	     -4.26418161	    -82.95544434	   -326.03366536	   -974.85947605	      0.00000000	      0.00000000	      0.00000000	   1317.55885671	     -9.30387876	      0.26496587	   -789.48822021	   -313.58700824	   -729.40546995	      0.00000000	      0.00000000	     -0.00000000	  -3482.12556241	      0.00000000	     -0.00000000	      0.00000000	      0.00000000	      0.00000000	      0.00000000	      0.00000000	      0.00000000	      0.00000000
      0.11000000	      0.00000000	     -0.00000000	      0.00000000	      0.00000000	      0.00000000	      0.00000000	      0.00000000	      0.00000000	      0.00000000	      8.01532459	     -4.90557432	    -83.43135071	   -328.08151130	   -976.67950551	      0.00000000	      0.00000000	      0.00000000	   1249.35145315	     -8.96672533	      0.19390843	   -789.51367188	   -313.33902498	   -730.29487973	      0.00000000	      0.00000000	     -0.00000000	  -3370.85187693	      0.00000000	     -0.00000000	      0.00000000	      0.00000000	      0.00000000	      0.00000000	      0.00000000	      0.00000000	      0.00000000
      0.12000000	      0.00000000	     -0.00000000	      0.00000000	      0.00000000	      0.00000000	      0.00000000	      0.00000000	      0.00000000	      0.00000000	      7.60602570	     -5.41714430	    -82.64410400	   -328.59554179	   -976.80467800	      0.00000000	     -0.00000000	      0.00000000	   1106.93691566	     -8.62515346	      0.88657079	   -790.89465332	   -313.43859693	   -729.77151573	      0.00000000	      0.00000000	     -0.00000000	  -3663.17704863	      0.00000000	     -0.00000000	      0.00000000	      0.00000000	      0.00000000	      0.00000000	      0.00000000	      0.00000000	      0.00000000
      0.13000000	      0.00000000	     -0.00000000	      0.00000000	      0.00000000	      0.00000000	      0.00000000	      0.00000000	      0.00000000	      0.00000000	      8.28701591	     -4.99130249	    -83.00990295	   -328.74920246	   -987.08794117	      0.00000000	      0.00000000	      0.00000000	   1287.04275854	     -8.77911654	      1.05986100	   -791.88867188	   -312.92072803	   -729.85061313	      0.00000000	      0.00000000	     -0.00000000	  -3527.57502999	      0.00000000	     -0.00000000	      0.00000000	      0.00000000	      0.00000000	      0.00000000	      0.00000000	      0.00000000	      0.00000000
      0.14000000	      0.00000000	     -0.00000000	      0.00000000	      0.00000000	      0.00000000	      0.00000000	      0.00000000	      0.00000000	      0.00000000	      7.85357761	     -3.83260727	    -81.58456421	   -326.04526808	   -979.98793767	      0.00000000	     -0.00000000	      0.00000000	   1176.31683232	     -8.34504880	      1.14507867	   -793.32153320	   -313.36450730	   -729.57479145	      0.00000000	     -0.00000000	     -0.00000000	  -3650.45406251	      0.00000000	     -0.00000000	      0.00000000	      0.00000000	      0.00000000	      0.00000000	      0.00000000	      0.00000000	      0.00000000
      0.15000000	      0.00000000	     -0.00000000	      0.00000000	      0.00000000	      0.00000000	      0.00000000	      0.00000000	      0.00000000	      0.00000000	      7.13684082	     -3.22629237	    -79.80704498	   -326.38214711	   -978.88649419	      0.00000000	      0.00000000	      0.00000000	   1049.45099921	     -8.51323403	      1.26040700	   -795.04180908	   -313.13523426	   -728.97168778	      0.00000000	      0.00000000	     -0.00000000	  -3841.66877469	      0.00000000	     -0.00000000	      0.00000000	      0.00000000	      0.00000000	      0.00000000	      0.00000000	      0.00000000	      0.00000000
      0.16000000	      0.00000000	     -0.00000000	      0.00000000	      0.00000000	      0.00000000	      0.00000000	      0.00000000	      0.00000000	      0.00000000	      7.21754503	     -3.11956406	    -79.81866455	   -320.53699907	   -980.76396235	      0.00000000	      0.00000000	      0.00000000	   1344.51392209	     -8.60784706	      1.77798931	   -793.92517090	   -312.71168640	   -729.47664859	      0.00000000	     -0.00000000	     -0.00000000	  -3751.37789683	      0.00000000	     -0.00000000	      0.00000000	      0.00000000	      0.00000000	      0.00000000	      0.00000000	      0.00000000	      0.00000000
      0.17000000	      0.00000000	     -0.00000000	      0.00000000	      0.00000000	      0.00000000	      0.00000000	      0.00000000	      0.00000000	      0.00000000	      6.50693130	     -3.03586483	    -79.08002472	   -325.61154759	   -986.24996978	      0.00000000	     -0.00000000	      0.00000000	   1203.35563789	     -9.21756733	      1.25036666	   -793.98181152	   -312.40366703	   -729.67304593	      0.00000000	      0.00000000	     -0.00000000	  -3907.38651707	      0.00000000	     -0.00000000	      0.00000000	      0.00000000	      0.00000000	      0.00000000	      0.00000000	      0.00000000	      0.00000000
      0.18000000	      0.00000000	     -0.00000000	      0.00000000	      0.00000000	      0.00000000	      0.00000000	      0.00000000	      0.00000000	      0.00000000	      6.32360935	     -3.29007936	    -79.10207367	   -323.50843142	   -981.52749871	      0.00000000	      0.00000000	      0.00000000	   1227.08494476	     -9.40069191	      0.88585763	   -793.96038818	   -312.19476705	   -729.53185223	      0.00000000	      0.00000000	     -0.00000000	  -3892.18071833	      0.00000000	     -0.00000000	      0.00000000	      0.00000000	      0.00000000	      0.00000000	      0.00000000	      0.00000000	      0.00000000
